<svg width="149" height="18" viewBox="0 0 149 18" fill="none" xmlns="http://www.w3.org/2000/svg">
<path d="M0.995 15C0.855 15 0.729 14.951 0.617 14.853C0.519 14.741 0.47 14.615 0.47 14.475V0.825C0.47 0.670999 0.519 0.544999 0.617 0.447C0.729 0.348999 0.855 0.299999 0.995 0.299999H3.263C3.599 0.299999 3.844 0.453999 3.998 0.761999L7.694 7.377L11.39 0.761999C11.544 0.453999 11.789 0.299999 12.125 0.299999H14.372C14.526 0.299999 14.652 0.348999 14.75 0.447C14.862 0.544999 14.918 0.670999 14.918 0.825V14.475C14.918 14.629 14.862 14.755 14.75 14.853C14.652 14.951 14.526 15 14.372 15H11.873C11.719 15 11.586 14.951 11.474 14.853C11.376 14.755 11.327 14.629 11.327 14.475V6.6L8.975 10.989C8.793 11.311 8.548 11.472 8.24 11.472H7.148C6.966 11.472 6.819 11.43 6.707 11.346C6.595 11.262 6.497 11.143 6.413 10.989L4.04 6.6V14.475C4.04 14.615 3.991 14.741 3.893 14.853C3.795 14.951 3.669 15 3.515 15H0.995ZM18.3856 15C18.2456 15 18.1196 14.951 18.0076 14.853C17.9096 14.741 17.8606 14.615 17.8606 14.475V0.825C17.8606 0.670999 17.9096 0.544999 18.0076 0.447C18.1196 0.348999 18.2456 0.299999 18.3856 0.299999H28.1926C28.3466 0.299999 28.4726 0.348999 28.5706 0.447C28.6686 0.544999 28.7176 0.670999 28.7176 0.825V2.799C28.7176 2.939 28.6686 3.065 28.5706 3.177C28.4726 3.275 28.3466 3.324 28.1926 3.324H21.4936V6.159H27.7306C27.8846 6.159 28.0106 6.215 28.1086 6.327C28.2066 6.425 28.2556 6.551 28.2556 6.705V8.532C28.2556 8.672 28.2066 8.798 28.1086 8.91C28.0106 9.008 27.8846 9.057 27.7306 9.057H21.4936V11.976H28.3606C28.5146 11.976 28.6406 12.025 28.7386 12.123C28.8366 12.221 28.8856 12.347 28.8856 12.501V14.475C28.8856 14.615 28.8366 14.741 28.7386 14.853C28.6406 14.951 28.5146 15 28.3606 15H18.3856ZM30.9577 17.94C30.8037 17.94 30.6707 17.891 30.5587 17.793C30.4607 17.695 30.4117 17.569 30.4117 17.415V12.165C30.4117 12.011 30.4607 11.885 30.5587 11.787C30.6707 11.689 30.8037 11.64 30.9577 11.64H31.3357C31.9657 11.64 32.4137 11.066 32.6797 9.918C32.9597 8.77 33.0997 7.16 33.0997 5.088V0.825C33.0997 0.670999 33.1487 0.544999 33.2467 0.447C33.3587 0.348999 33.4847 0.299999 33.6247 0.299999H43.4947C43.6487 0.299999 43.7747 0.348999 43.8727 0.447C43.9707 0.544999 44.0197 0.670999 44.0197 0.825V11.64H45.0067C45.1607 11.64 45.2867 11.689 45.3847 11.787C45.4967 11.885 45.5527 12.011 45.5527 12.165V17.415C45.5527 17.569 45.4967 17.695 45.3847 17.793C45.2867 17.891 45.1607 17.94 45.0067 17.94H42.2977C42.1577 17.94 42.0317 17.891 41.9197 17.793C41.8217 17.695 41.7727 17.569 41.7727 17.415V15H34.1917V17.415C34.1917 17.569 34.1427 17.695 34.0447 17.793C33.9467 17.891 33.8207 17.94 33.6667 17.94H30.9577ZM40.2607 11.64V3.66H36.7537V5.571C36.7537 8.413 36.4317 10.436 35.7877 11.64H40.2607ZM48.2245 15C48.0845 15 47.9585 14.951 47.8465 14.853C47.7485 14.741 47.6995 14.615 47.6995 14.475V0.825C47.6995 0.670999 47.7485 0.544999 47.8465 0.447C47.9585 0.348999 48.0845 0.299999 48.2245 0.299999H54.6295C56.3935 0.299999 57.7025 0.663999 58.5565 1.392C59.4245 2.106 59.8585 3.128 59.8585 4.458C59.8585 5.158 59.6765 5.753 59.3125 6.243C58.9625 6.719 58.5635 7.069 58.1155 7.293C58.6895 7.559 59.1725 7.986 59.5645 8.574C59.9565 9.162 60.1525 9.82 60.1525 10.548C60.1525 11.948 59.6905 13.04 58.7665 13.824C57.8425 14.608 56.5265 15 54.8185 15H48.2245ZM54.2095 6.138C54.7695 6.138 55.1965 5.998 55.4905 5.718C55.7845 5.424 55.9315 5.039 55.9315 4.563C55.9315 4.101 55.7845 3.73 55.4905 3.45C55.1965 3.17 54.7695 3.03 54.2095 3.03H51.4795V6.138H54.2095ZM54.3985 12.27C54.9725 12.27 55.4205 12.102 55.7425 11.766C56.0645 11.43 56.2255 11.024 56.2255 10.548C56.2255 10.044 56.0645 9.631 55.7425 9.309C55.4205 8.973 54.9725 8.805 54.3985 8.805H51.4795V12.27H54.3985ZM63.0106 15C62.8706 15 62.7446 14.951 62.6326 14.853C62.5346 14.741 62.4856 14.615 62.4856 14.475V0.825C62.4856 0.670999 62.5346 0.544999 62.6326 0.447C62.7446 0.348999 62.8706 0.299999 63.0106 0.299999H72.8176C72.9716 0.299999 73.0976 0.348999 73.1956 0.447C73.2936 0.544999 73.3426 0.670999 73.3426 0.825V2.799C73.3426 2.939 73.2936 3.065 73.1956 3.177C73.0976 3.275 72.9716 3.324 72.8176 3.324H66.1186V6.159H72.3556C72.5096 6.159 72.6356 6.215 72.7336 6.327C72.8316 6.425 72.8806 6.551 72.8806 6.705V8.532C72.8806 8.672 72.8316 8.798 72.7336 8.91C72.6356 9.008 72.5096 9.057 72.3556 9.057H66.1186V11.976H72.9856C73.1396 11.976 73.2656 12.025 73.3636 12.123C73.4616 12.221 73.5106 12.347 73.5106 12.501V14.475C73.5106 14.615 73.4616 14.741 73.3636 14.853C73.2656 14.951 73.1396 15 72.9856 15H63.0106ZM81.8017 15.21C79.7997 15.21 78.2317 14.727 77.0977 13.761C75.9777 12.781 75.3827 11.367 75.3127 9.519C75.2987 9.141 75.2917 8.525 75.2917 7.671C75.2917 6.803 75.2987 6.173 75.3127 5.781C75.3827 3.961 75.9917 2.561 77.1397 1.581C78.2877 0.586999 79.8417 0.0899992 81.8017 0.0899992C83.0337 0.0899992 84.1397 0.299999 85.1197 0.72C86.0997 1.126 86.8697 1.714 87.4297 2.484C88.0037 3.24 88.2977 4.129 88.3117 5.151V5.193C88.3117 5.305 88.2627 5.403 88.1647 5.487C88.0807 5.557 87.9827 5.592 87.8707 5.592H85.0357C84.8537 5.592 84.7137 5.557 84.6157 5.487C84.5177 5.403 84.4337 5.256 84.3637 5.046C84.1677 4.332 83.8597 3.835 83.4397 3.555C83.0197 3.261 82.4667 3.114 81.7807 3.114C80.1287 3.114 79.2747 4.038 79.2187 5.886C79.2047 6.264 79.1977 6.845 79.1977 7.629C79.1977 8.413 79.2047 9.008 79.2187 9.414C79.2747 11.262 80.1287 12.186 81.7807 12.186C82.4667 12.186 83.0267 12.039 83.4607 11.745C83.8947 11.437 84.1957 10.94 84.3637 10.254C84.4197 10.044 84.4967 9.904 84.5947 9.834C84.6927 9.75 84.8397 9.708 85.0357 9.708H87.8707C87.9967 9.708 88.1017 9.75 88.1857 9.834C88.2837 9.918 88.3257 10.023 88.3117 10.149C88.2977 11.171 88.0037 12.067 87.4297 12.837C86.8697 13.593 86.0997 14.181 85.1197 14.601C84.1397 15.007 83.0337 15.21 81.8017 15.21ZM94.2788 15C94.1388 15 94.0128 14.951 93.9008 14.853C93.8028 14.741 93.7538 14.615 93.7538 14.475V3.597H90.0158C89.8758 3.597 89.7498 3.548 89.6378 3.45C89.5398 3.338 89.4908 3.212 89.4908 3.072V0.825C89.4908 0.670999 89.5398 0.544999 89.6378 0.447C89.7498 0.348999 89.8758 0.299999 90.0158 0.299999H101.314C101.468 0.299999 101.594 0.348999 101.692 0.447C101.79 0.544999 101.839 0.670999 101.839 0.825V3.072C101.839 3.226 101.79 3.352 101.692 3.45C101.594 3.548 101.468 3.597 101.314 3.597H97.5758V14.475C97.5758 14.615 97.5268 14.741 97.4288 14.853C97.3308 14.951 97.2048 15 97.0508 15H94.2788ZM104.272 15C104.118 15 103.992 14.951 103.894 14.853C103.796 14.755 103.747 14.629 103.747 14.475V0.825C103.747 0.670999 103.796 0.544999 103.894 0.447C104.006 0.348999 104.132 0.299999 104.272 0.299999H106.981C107.135 0.299999 107.261 0.348999 107.359 0.447C107.471 0.544999 107.527 0.670999 107.527 0.825V5.886H112.693V0.825C112.693 0.670999 112.742 0.544999 112.84 0.447C112.938 0.348999 113.064 0.299999 113.218 0.299999H115.927C116.081 0.299999 116.207 0.348999 116.305 0.447C116.403 0.544999 116.452 0.670999 116.452 0.825V14.475C116.452 14.629 116.403 14.755 116.305 14.853C116.207 14.951 116.081 15 115.927 15H113.218C113.064 15 112.938 14.951 112.84 14.853C112.742 14.755 112.693 14.629 112.693 14.475V9.246H107.527V14.475C107.527 14.629 107.471 14.755 107.359 14.853C107.261 14.951 107.135 15 106.981 15H104.272ZM119.92 15C119.766 15 119.64 14.951 119.542 14.853C119.444 14.741 119.395 14.608 119.395 14.454V0.825C119.395 0.670999 119.444 0.544999 119.542 0.447C119.654 0.348999 119.78 0.299999 119.92 0.299999H122.629C122.783 0.299999 122.909 0.348999 123.007 0.447C123.119 0.544999 123.175 0.670999 123.175 0.825V9.267L129.139 0.698999C129.307 0.432999 129.545 0.299999 129.853 0.299999H132.289C132.443 0.299999 132.569 0.348999 132.667 0.447C132.765 0.544999 132.814 0.670999 132.814 0.825V14.475C132.814 14.615 132.765 14.741 132.667 14.853C132.569 14.951 132.443 15 132.289 15H129.58C129.426 15 129.293 14.951 129.181 14.853C129.083 14.755 129.034 14.629 129.034 14.475V6.327L123.07 14.601C122.888 14.867 122.65 15 122.356 15H119.92ZM148.465 14.286C148.507 14.342 148.528 14.419 148.528 14.517C148.528 14.657 148.479 14.776 148.381 14.874C148.297 14.958 148.185 15 148.045 15H144.937C144.741 15 144.594 14.965 144.496 14.895C144.412 14.825 144.314 14.727 144.202 14.601L140.989 9.246H139.54V14.475C139.54 14.629 139.484 14.755 139.372 14.853C139.274 14.951 139.148 15 138.994 15H136.285C136.131 15 136.005 14.951 135.907 14.853C135.809 14.755 135.76 14.629 135.76 14.475V0.825C135.76 0.670999 135.809 0.544999 135.907 0.447C136.019 0.348999 136.145 0.299999 136.285 0.299999H138.994C139.148 0.299999 139.274 0.348999 139.372 0.447C139.484 0.544999 139.54 0.670999 139.54 0.825V5.886L140.821 5.907L143.908 0.698999C144.062 0.432999 144.321 0.299999 144.685 0.299999H147.73C147.856 0.299999 147.961 0.341999 148.045 0.426C148.129 0.51 148.171 0.615 148.171 0.741C148.171 0.797 148.143 0.880999 148.087 0.992999L144.181 7.377L148.465 14.286Z" fill="white"/>
</svg>
